<?xml version="1.0" encoding="UTF-8"?>
<svg id="Ebene_1" xmlns="http://www.w3.org/2000/svg" version="1.1" xmlns:xlink="http://www.w3.org/1999/xlink" viewBox="0 0 109.8 109.8">
  <!-- Generator: Adobe Illustrator 29.1.0, SVG Export Plug-In . SVG Version: 2.1.0 Build 142)  -->
  <defs>
    <style>
      .st0 {
        fill: #fff;
      }

      .st1 {
        fill: none;
      }

      .st2 {
        stroke-width: 2px;
      }

      .st2, .st3, .st4 {
        fill: #1e4268;
        stroke: #fff;
      }

      .st2, .st4 {
        stroke-miterlimit: 10;
      }

      .st3 {
        stroke-miterlimit: 10;
        stroke-width: 1.9px;
      }

      .st4 {
        stroke-width: 1.8px;
      }

      .st5 {
        clip-path: url(#clippath);
      }
    </style>
    <clipPath id="clippath">
      <path class="st1" d="M55.8.8c29.5,0,53.3,24.1,53.2,53.6,0,29.5-24.1,53.3-53.6,53.2-29.5,0-53.3-24.1-53.2-53.6C2.2,24.5,26.3.7,55.7.8h0Z"/>
    </clipPath>
  </defs>
  <path class="st2" d="M108.8,55c0,29.8-24.2,53.9-54,53.8C25,108.8.9,84.6,1,54.8,1,25,25.2.9,55,1c29.8,0,53.9,24.2,53.8,54Z"/>
  <path class="st4" d="M96.3,55c0,22.8-18.6,41.3-41.4,41.3S13.6,77.7,13.6,54.9,32.2,13.6,55,13.6s41.3,18.6,41.3,41.4Z"/>
  <g class="st5">
    <rect class="st3" x="42" y="-16.3" width="25.8" height="141" transform="translate(.6 109.1) rotate(-89.9)"/>
  </g>
  <g>
    <path class="st0" d="M16.6,28.9l1.3,1.8-.5.7-4.1-5.7.6-.8,6.7,2-.5.7-2.1-.6s-1.4,1.9-1.4,1.9ZM17.3,26.8l-1.9-.6c-.4,0-.8-.3-1.2-.4h0c.3.3.5.6.8,1l1.2,1.6,1.2-1.6h0Z"/>
    <path class="st0" d="M18.6,23.8l-.9-.9.5-.5.6.5h0c0-.5,0-1.1.4-1.7.4-.5,1.1-.5,1.6-.3h0v-.8c0-.4.2-.7.5-1,.4-.5,1.4-.8,2.6.3l2,2-.6.6-1.9-1.9c-.7-.6-1.3-.8-1.8-.3s-.4.9-.2,1.3c0,0,.2.2.3.4l2.1,2.1-.6.6-2-2c-.5-.5-1.2-.7-1.6-.2-.4.4-.3,1,0,1.4,0,0,0,.2.3.3l2,2-.6.6-2.5-2.4h0Z"/>
    <path class="st0" d="M24.2,15.3l.7.9,1-.8.4.5-1,.8,1.6,2c.4.5.7.6,1.1.3.2,0,.3-.2.4-.4l.4.5c0,0-.3.4-.5.6-.3.2-.7.3-1,.3s-.7-.3-1-.8l-1.6-2-.6.5-.4-.5.6-.5-.5-.7.5-.7h-.1Z"/>
    <path class="st0" d="M25.8,12.8l.7-.5,3.9,5.7-.7.5-3.9-5.7Z"/>
    <path class="st0" d="M29.2,12.2c-.3.2-.6,0-.7-.2-.2-.3,0-.6.2-.8.3-.2.6,0,.8.2.2.3,0,.6-.2.8h0ZM31.7,17.2l-2.4-4.1.7-.4,2.4,4.1-.7.4Z"/>
    <path class="st0" d="M36.8,14.4c-.2.2-.5.6-1.1.9-1.3.6-2.5.2-3.2-1.1s-.2-2.7,1.1-3.4c.5-.2.9-.3,1.2-.3v.7c0,0-.5,0-.9.2-1,.5-1.1,1.5-.7,2.4.5,1,1.4,1.3,2.3.8.4-.2.7-.5.8-.7l.4.5h0Z"/>
    <path class="st0" d="M35.4,7.6l.8-.3,1,2.8h0c0-.3.2-.6.4-.8.2-.2.4-.4.7-.5.6-.2,1.7-.2,2.3,1.3l1,2.6-.8.3-.9-2.6c-.3-.7-.8-1.2-1.5-.9-.5.2-.8.7-.8,1.2v.4l1,2.7-.8.3s-2.4-6.5-2.4-6.5Z"/>
    <path class="st0" d="M42.9,10c.3,1.1,1.1,1.4,2,1.2.6,0,.9-.3,1.2-.5l.3.6c-.3.2-.7.5-1.5.7-1.4.3-2.5-.4-2.8-1.8-.3-1.4.2-2.7,1.6-3,1.5-.4,2.2.9,2.4,1.7v.4l-3.2.8h0ZM45.3,8.8c0-.5-.5-1.3-1.5-1.1-.9.2-1,1.1-1,1.7l2.4-.6h0Z"/>
    <path class="st0" d="M47.6,10.4c.3,0,.8.2,1.2.2.6,0,.9-.4.8-.8,0-.4-.3-.6-1-.7-.9-.2-1.4-.6-1.4-1.2s.4-1.5,1.4-1.6c.5,0,.9,0,1.2,0v.6c-.3,0-.7-.2-1.1,0-.5,0-.7.4-.7.7s.3.5,1,.7c.8.2,1.3.5,1.4,1.3s-.5,1.5-1.6,1.6c-.5,0-1,0-1.4-.2v-.7h.2Z"/>
    <path class="st0" d="M55.1,10.7l-2-6.6h.9l1,3.3c.3.9.5,1.7.7,2.5h0c.2-.8.5-1.6.8-2.4l1.2-3.2h.9l-2.5,6.6h-.9v-.2Z"/>
    <path class="st0" d="M59.6,8.7c0,1.2.5,1.7,1.4,1.8h1.3v.6c-.2,0-.8.2-1.5,0-1.4-.2-2.2-1.3-2-2.7s1.2-2.4,2.5-2.3c1.5.2,1.8,1.6,1.7,2.5v.4l-3.3-.4h0ZM62.1,8.4c0-.5,0-1.4-1-1.5-.9,0-1.3.6-1.5,1.2l2.5.3Z"/>
    <path class="st0" d="M64.5,8.4c0-.5.2-1,.3-1.5l.7.2-.2.9h0c.3-.6,1-.8,1.5-.7h.2l-.2.8h-.3c-.6,0-1.1.2-1.4.8,0,0,0,.3,0,.4l-.5,2.5-.8-.2.7-3.2h.1Z"/>
    <path class="st0" d="M66.7,11.7l2.9-2c.3-.2.5-.3.8-.5h0l-2.5-.8.2-.7,3.4,1.1-.2.5-2.9,2c-.3.2-.5.4-.8.5h0l2.6.9-.2.7-3.7-1.2.2-.5h.2Z"/>
    <path class="st0" d="M72.3,11.8c-.4,1.1,0,1.8.8,2.2.6.2,1,.3,1.3.3v.6c-.4,0-1,0-1.7-.4-1.3-.6-1.7-1.8-1.2-3.1.6-1.3,1.8-2,3.1-1.5,1.4.6,1.2,2,.9,2.8,0,.2,0,.3-.2.4l-3-1.3h0ZM74.9,12.3c.2-.5.4-1.4-.5-1.8-.8-.4-1.5.2-1.8.8l2.3,1Z"/>
    <path class="st0" d="M75.6,15.8l2.2-4.2.8.4-2.3,4.2-.8-.4h.1ZM78.6,11c-.3-.2-.4-.5-.2-.7,0-.3.5-.4.8-.2s.4.5.2.7c0,.3-.5.4-.8.2h0Z"/>
    <path class="st0" d="M80.6,18.6c-.2,0-.8-.2-1.3-.5-1.2-.8-1.5-2.1-.7-3.3s2.2-1.6,3.5-.7c.4.3.7.6.9.9l-.5.4c0-.2-.3-.5-.7-.7-.9-.6-1.8-.2-2.4.6-.6.9-.4,1.9.4,2.4.4.3.7.3,1,.4l-.2.6h0Z"/>
    <path class="st0" d="M85.7,14l.7.5-1.9,2.3h0c.3,0,.6,0,.9,0,.3,0,.6.2.8.4.5.4,1,1.3,0,2.6l-1.8,2.2-.7-.5,1.7-2.1c.5-.6.7-1.3,0-1.8-.4-.4-1-.3-1.4,0,0,0-.2.2-.3.3l-1.8,2.2-.7-.5,4.4-5.4v-.2Z"/>
    <path class="st0" d="M88,20.5c.4-.3.6-.6.9-.9l.5.6-.5.6h0c.5,0,1.2,0,1.7.5s.9,1.5-.3,2.6l-2,2-.6-.6,2-1.9c.6-.5.8-1.2.3-1.8-.4-.4-1-.4-1.4-.2,0,0-.2,0-.3.2l-2.1,2-.6-.6,2.5-2.4h0Z"/>
    <path class="st0" d="M89.2,27l3.7-3,.5.7-3.7,3-.5-.7ZM93.9,23.8c-.2-.3,0-.6,0-.8s.6-.2.8,0c.2.3.2.6,0,.8s-.6.2-.8,0h0Z"/>
    <path class="st0" d="M91.4,28.3c0,.3,0,.8.4,1.1.3.5.8.6,1.1.4.3-.2.4-.6.2-1.2-.2-.9,0-1.5.4-1.8.6-.4,1.5-.3,2.1.6.3.4.4.8.4,1.1l-.6.2c0-.2,0-.6-.3-1s-.7-.5-1-.3-.3.6-.2,1.2c.2.8,0,1.4-.5,1.8-.7.5-1.5.3-2.2-.6-.3-.4-.5-.9-.5-1.3l.6-.2h0Z"/>
  </g>
  <g>
    <path class="st0" d="M13.3,70.2c.2.3.5.8.7,1.4.3.7.4,1.3.2,1.8,0,.4-.5.8-1,1s-1,.2-1.4,0c-.6-.2-1-.8-1.3-1.5,0-.2-.2-.4-.2-.6l-2.3.9-.3-.7s5.6-2.3,5.6-2.3ZM10.9,72.1c0,.2,0,.4.2.6.4.9,1,1.2,1.8.9.8-.3.9-1,.6-1.8,0-.3-.3-.6-.3-.7l-2.2.9h0Z"/>
    <path class="st0" d="M12.4,75.7c.5-.2.9-.4,1.2-.7l.3.6-.8.4h0c.6,0,1.2.2,1.4.7v.2l-.7.3s0-.2,0-.3c-.3-.5-.8-.7-1.4-.5,0,0-.2,0-.4,0l-2.1,1.1-.4-.7,2.7-1.4.3.2Z"/>
    <path class="st0" d="M13.7,82c-.3.2-.6.4-.9.6l-.4-.6.4-.4h0c-.4,0-.9-.3-1.3-.8-.5-.8-.2-1.5.4-1.8.9-.6,1.9,0,2.8,1.4h0c.3-.2.8-.7.3-1.4-.2-.4-.5-.7-.9-.8l.4-.4c.4.2.8.6,1.1,1,.7,1.2,0,1.9-.7,2.4l-1.4.9h.2ZM14.3,80.7c-.4-.8-1.1-1.5-1.8-1.1-.5.3-.5.7-.3,1,.3.5.8.6,1.2.5,0,0,.2,0,.2,0l.7-.4h0ZM15.9,77.9c0-.2,0-.5.2-.6s.5,0,.6.2,0,.5-.2.6-.5,0-.6,0h0ZM16.8,79.3c0-.2,0-.5.2-.6s.5,0,.6.2,0,.5-.2.6-.5,0-.6,0h0Z"/>
    <path class="st0" d="M16.1,86h0c-.5,0-1.1,0-1.5-.7-.6-.8-.4-2,.6-2.8,1.3-1,2.5-.6,3.1,0,.4.5.4,1.1.2,1.5h0l.5-.4.5.6c-.3.2-.6.4-1,.7l-4,3-.5-.6,2-1.5h.1ZM17.7,84.8l.2-.2c.3-.4.4-1,0-1.5-.5-.7-1.4-.6-2.2,0-.7.5-1.1,1.3-.5,2,.3.4.8.6,1.4.4,0,0,.2,0,.3-.2l.7-.5h0Z"/>
    <path class="st0" d="M20.7,90.2c-.3.3-.6.6-.8.9l-.5-.5.5-.5h0c-.4,0-1.1,0-1.6-.5s-.8-1.4.3-2.4l1.9-1.8.6.6-1.8,1.7c-.6.6-.8,1.2-.3,1.7s.9.4,1.3.3c0,0,.2,0,.3-.2l2-1.9.6.6-2.3,2.2-.2-.2Z"/>
    <path class="st0" d="M24.1,93.4c-.2.3-.5.6-.6.8l-.5-.5.3-.5h0c-.4,0-1,0-1.5-.4-.7-.6-.6-1.4-.2-1.8.7-.8,1.8-.6,3.1.5h0c.2-.3.6-.9,0-1.5-.3-.3-.7-.5-1.1-.5l.2-.5c.4,0,.9.3,1.4.7,1,.9.7,1.8,0,2.5l-1.1,1.3h-.1ZM24.3,92c-.7-.6-1.5-1.1-2.1-.5-.3.4-.2.8,0,1.1.4.4,1,.3,1.3,0,0,0,0,0,.2-.2l.5-.6h0Z"/>
    <path class="st0" d="M28.5,89.9l.6.5-3.9,5.2-.6-.5,3.9-5.2Z"/>
    <path class="st0" d="M26.4,96.4l2.5-3.7.7.5-2.5,3.7-.7-.5ZM29.7,92.3c-.2-.2-.3-.5,0-.7s.5-.3.7,0c.3.2.3.5,0,.7s-.5.3-.7,0h0Z"/>
    <path class="st0" d="M28.3,97.7l2-3.3-.5-.3.3-.5.5.3v-.2c.4-.5.9-.9,1.4-1,.4,0,.8,0,1.1.2.2.2.4.3.5.5l-.4.5c0,0-.2-.2-.4-.4-.6-.4-1,0-1.4.6v.2c0,0,.8.6.8.6l-.3.5-.9-.5-2,3.3-.7-.4h0Z"/>
    <path class="st0" d="M30.7,99.1l2.1-3.9.7.4-2.1,3.9-.7-.4ZM33.5,94.6c-.3,0-.3-.4-.2-.7,0-.2.4-.4.7-.2.3,0,.3.4.2.7,0,.2-.4.4-.7.2h0Z"/>
    <path class="st0" d="M32.5,99.5l2.9-1.5c.3-.1.5-.3.8-.4h0l-2.2-1,.3-.6,3.1,1.4-.2.5-2.9,1.5c-.3.1-.5.3-.8.4h0l2.3,1.1-.3.6-3.3-1.5.2-.4h0Z"/>
    <path class="st0" d="M36.5,101.8l1.6-4.1.7.3-1.6,4.1-.7-.3ZM38.7,97c-.3,0-.4-.4-.3-.7,0-.3.4-.4.7-.3s.4.4.3.7c0,.3-.4.4-.7.3h0Z"/>
    <path class="st0" d="M39.7,100.8c-.3,1,.2,1.7,1,1.9.6.2.9.2,1.2.1v.6c-.3,0-.9,0-1.5-.2-1.3-.4-1.8-1.5-1.4-2.8s1.5-2.1,2.7-1.7c1.4.4,1.4,1.7,1.1,2.5,0,.2,0,.3,0,.4l-3-.9h0ZM42.1,100.9c.2-.5.2-1.3-.7-1.6-.8-.2-1.3.4-1.6.9l2.2.7h0Z"/>
    <path class="st0" d="M44,101c0-.5.2-.9.3-1.4l.7.2v.9h0c.3-.5.9-.8,1.4-.7h.2l-.2.7h-.3c-.6-.1-1,.2-1.3.8,0,.1,0,.2,0,.4l-.5,2.3-.8-.2s.7-3,.7-3Z"/>
    <path class="st0" d="M48.4,99.3l-.2,1,1.1.2v.6l-1.2-.2-.3,2.4c0,.5,0,.9.5.9h.5v.6h-.8c-.4,0-.7-.2-.8-.5-.2-.3-.2-.7,0-1.2l.4-2.4h-.7v-.7h.7v-.7h.9Z"/>
    <path class="st0" d="M50.5,103c0,1.1.6,1.6,1.4,1.6s.9,0,1.2-.1v.6c-.2.1-.7.2-1.4.2-1.3,0-2.1-1-2-2.4,0-1.3,1-2.3,2.2-2.2,1.4,0,1.7,1.4,1.7,2.2v.4l-3.1-.2h0ZM52.9,102.6c0-.5,0-1.3-1-1.4-.8,0-1.2.7-1.3,1.2l2.3.2Z"/>
    <path class="st0" d="M54.7,102.2v-1.4h.7v.9h0c.2-.6.7-1,1.2-1h.2v.7h-.3c-.6,0-1,.4-1.1,1v2.8h-.8v-3h.1Z"/>
    <path class="st0" d="M60,98.9l.5,3.6c.2,1.4.9,1.8,1.7,1.7.9-.1,1.4-.8,1.2-2.2l-.5-3.6h.8c0-.1.5,3.4.5,3.4.3,1.9-.6,2.8-1.9,3-1.2.2-2.3-.4-2.6-2.3l-.5-3.6h.8Z"/>
    <path class="st0" d="M65.5,100.9c0-.4-.2-.8-.3-1.1l.7-.2.2.7h0c0-.5.5-1,1.2-1.2.6-.2,1.6,0,2,1.4l.7,2.5-.8.2-.7-2.5c-.2-.7-.6-1.2-1.3-1-.5.1-.8.6-.8,1.1v.4l.7,2.6-.8.2-.8-3.1h0Z"/>
    <path class="st0" d="M70.5,97l.4,1,1.1-.4.2.6-1.1.4.8,2.2c.2.5.4.8.9.6.2,0,.3-.1.4-.2l.2.6c0,.1-.3.2-.6.3-.4.1-.7.1-.9,0-.3-.2-.5-.5-.7-1l-.8-2.3-.6.2-.2-.6.6-.2-.3-.8.7-.5h0Z"/>
    <path class="st0" d="M74.1,99.3c.5,1,1.3,1.1,2,.8.5-.2.8-.5,1-.7l.4.5c-.2.2-.6.6-1.2.9-1.2.6-2.4,0-2.9-1.1-.6-1.2-.3-2.5.9-3,1.3-.6,2.2.4,2.5,1.1,0,0,0,.3,0,.4l-2.8,1.3v-.2ZM76,97.8c-.2-.5-.7-1.1-1.6-.7-.7.3-.7,1.2-.6,1.7l2.1-1h0Z"/>
    <path class="st0" d="M77.4,96.6c-.3-.5-.5-.8-.7-1.2l.6-.3.5.7h0c0-.6,0-1.2.6-1.5h.2l.4.7s-.2,0-.3,0c-.5.3-.6.8-.4,1.4,0,0,0,.2.2.3l1.2,2.1-.7.4-1.5-2.7h0Z"/>
    <path class="st0" d="M80,94.9c-.3-.4-.5-.7-.7-1l.6-.4.4.6h0c0-.5,0-1.1.7-1.5.5-.3,1.5-.6,2.4.7l1.5,2.2-.7.5-1.4-2.1c-.4-.6-1-.9-1.6-.5-.4.3-.6.8-.4,1.3,0,0,0,.2.2.3l1.5,2.2-.7.5-1.8-2.7h0Z"/>
    <path class="st0" d="M85.3,92.5c.7.8,1.5.7,2.1.2.4-.4.6-.7.8-1l.5.3c0,.3-.4.7-.9,1.2-1,.9-2.2.7-3.1-.3s-.9-2.3,0-3.2c1.1-.9,2.2-.2,2.7.4,0,0,.2.2.2.3l-2.4,2h.1ZM86.7,90.6c-.3-.4-1-.9-1.7-.3-.6.5-.4,1.3,0,1.8l1.8-1.5h-.1Z"/>
    <path class="st0" d="M85.3,86.6l.6-.6,2,1.9h0v-.8c0-.3.2-.5.4-.8.4-.4,1.3-.9,2.4.2l1.9,1.8-.6.6-1.8-1.8c-.5-.5-1.1-.7-1.7-.2-.4.4-.4.9-.2,1.3,0,0,0,.2.2.3l1.9,1.8-.6.6-4.7-4.5.2.2Z"/>
    <path class="st0" d="M91.3,85.1c-.4-.3-.7-.5-1-.7l.4-.6.6.4h0c-.2-.5-.3-1,.2-1.6.3-.5.9-.6,1.4-.5h0c0-.3-.2-.5-.2-.8s0-.6.3-1c.3-.5,1.2-1,2.4,0l2.1,1.5-.5.6-2-1.5c-.7-.5-1.3-.5-1.7,0-.3.4-.2.9,0,1.2l.3.3,2.2,1.6-.5.6-2.1-1.6c-.6-.4-1.2-.5-1.5,0-.3.4-.2.9,0,1.3,0,0,.2.2.3.3l2.2,1.6-.5.6-2.6-1.9.2.2Z"/>
    <path class="st0" d="M96.9,78.8c1,.5,1.7,0,2.1-.6.3-.5.4-.9.4-1.2h.6c0,.5-.1,1-.5,1.6-.6,1.2-1.8,1.5-3,.9s-1.7-1.8-1.1-3c.7-1.3,2-1,2.7-.6.1,0,.3,0,.3.2l-1.5,2.7h0ZM97.5,76.5c-.4-.2-1.2-.4-1.7.4-.4.7,0,1.4.6,1.7l1.1-2.1Z"/>
    <path class="st0" d="M97.8,74.6c-.4-.2-.8-.3-1.1-.4l.3-.7.7.2h0c-.3-.4-.5-1-.2-1.7.2-.6.9-1.3,2.3-.7l2.4,1-.3.7-2.4-1c-.7-.3-1.3-.3-1.6.4-.2.5,0,1,.3,1.3,0,0,.2,0,.3.2l2.5,1-.3.7-3-1.2v.2Z"/>
  </g>
  <g>
    <path class="st0" d="M13,63c.3-.6,9-18.3,9.1-18.6h0c0,.2,8.6,17.7,9,18.6h-2.2c-.2-.4-1.9-4-2.2-4.7h-9.3c-.2.4-2,4.1-2.3,4.7h-2.2ZM22.2,48.5c-.5,1-3.4,7.1-3.8,7.9h7.5c-.2-.5-3.3-6.9-3.7-7.9Z"/>
    <path class="st0" d="M36.1,44.6c.2.6,5.6,13.7,5.9,14.3.3-.7,5.8-13.9,5.9-14.3h2.1c-.2.5-7.7,18.3-7.9,18.8h-.2c0-.2-7.7-18.3-7.9-18.8h2.2,0Z"/>
    <path class="st0" d="M56.5,63v-18.4h9.4c3.2,0,5.7,2.4,5.7,5.5s-2.4,5.5-5.6,5.5h-7.6v7.3h-1.9ZM58.4,53.8h7.4c1.9,0,3.6-1.5,3.6-3.6s-1.8-3.6-3.7-3.6h-7.3v7.3h0Z"/>
    <path class="st0" d="M88.2,63.3v3.1h-2v-3.1c-4.8-.5-8.6-4.5-8.6-9.5s4.3-9.6,9.6-9.6,9.6,4.3,9.6,9.6-3.8,9-8.6,9.5ZM86.2,61.5v-4.8h2v4.8c3.7-.6,6.4-3.7,6.4-7.7s-3.3-7.7-7.5-7.7-7.5,3.4-7.5,7.7,2.8,7.1,6.4,7.7h.2Z"/>
  </g>
</svg>